<?xml version="1.0" encoding="UTF-8"?><svg id="a" xmlns="http://www.w3.org/2000/svg" viewBox="0 0 144 144"><defs><style>.c{fill:#fff;}</style></defs><g id="b"><path class="c" d="M19.34,3c35.1,0,70.2,0,105.3,0,.3,.16,.59,.4,.91,.47,9.75,2.12,15.43,9.1,15.44,19.01,0,6.76,0,13.51,0,20.27,0,26.6,.02,53.2-.01,79.8-.01,9.92-8.02,18.24-17.79,18.38-9.44,.14-18.88,.01-28.33,.06-1.36,0-1.83-.4-1.83-1.8,.05-15.2,.05-30.4,.02-45.6,0-1.43,.52-1.78,1.85-1.77,4.86,.06,9.72,.04,14.59,.02,2.37,0,3.54-1.02,3.82-3.3,.58-4.73,1.17-9.47,1.69-14.21,.37-3.36-.87-4.73-4.22-4.73-5.28-.01-10.57-.02-15.85,0-1.09,0-1.91-.03-1.88-1.51,.07-4.5-.09-9.01,.07-13.51,.19-5.08,3.08-7.78,8.24-7.93,2.96-.08,5.92-.02,8.88-.05,2.99-.04,4.22-1.24,4.25-4.26,.04-3.8,.04-7.6,0-11.4-.03-3.09-1.16-4.25-4.21-4.28-4.37-.04-8.74-.12-13.11,.02-5.79,.18-11.3,1.51-16.04,5.05-6.64,4.96-9.45,11.92-9.86,19.9-.28,5.33-.11,10.69-.04,16.04,.02,1.45-.39,1.99-1.9,1.95-3.45-.09-6.9-.06-10.36-.02-2.33,.03-3.73,1.32-3.75,3.65-.04,5.07-.01,10.13,.13,15.2,.07,2.39,1.26,3.38,3.65,3.39,3.38,.02,6.77,.11,10.14-.03,1.76-.07,2.1,.58,2.1,2.18-.06,14.99-.06,29.98-.02,44.97,0,1.56-.42,2.05-2.02,2.04-16.07-.06-32.13,.03-48.2-.06-9.8-.06-17.99-8.38-18-18.17-.03-33.78-.02-67.56,0-101.34,0-8.36,6.02-15.86,14.16-17.79,.73-.17,1.45-.43,2.17-.64Z"/></g></svg>