<?xml version="1.0" encoding="UTF-8"?><svg id="a" xmlns="http://www.w3.org/2000/svg" viewBox="0 0 144 144"><defs><style>.c{fill:#fff;}</style></defs><g id="b"><g><path class="c" d="M106.22,141.03H37.77c-1.36-.24-2.74-.42-4.09-.73-15.39-3.62-25.28-13.03-29.54-28.26-.53-1.88-.76-3.85-1.13-5.77V37.81c.1-.47,.17-.95,.3-1.42,.91-3.41,1.36-7.03,2.82-10.19C13.03,11.31,24.81,3.31,41.3,3.11c20.48-.25,40.96-.08,61.44-.03,2.54,0,5.13,.23,7.62,.73,17.91,3.62,30.57,19.06,30.62,37.32,.05,20.61,.03,41.23-.02,61.84,0,2.45-.18,4.97-.73,7.35-3.55,15.4-12.98,25.29-28.21,29.57-1.89,.53-3.86,.76-5.79,1.13ZM71.99,15.4v-.06c-10.02,0-20.03,0-30.05,0-3.07,0-6.08,.33-9.01,1.31-9.95,3.3-17.75,12.92-17.67,25.21,.13,20.12,.04,40.24,.03,60.37,0,3.02,.35,5.99,1.3,8.87,3.3,9.98,12.96,17.76,25.21,17.67,20.12-.13,40.24-.04,60.37-.03,3.02,0,5.99-.35,8.87-1.31,10.03-3.34,17.73-12.96,17.67-25.08-.11-20.21-.04-40.42-.02-60.64,0-4.34-.76-8.5-2.84-12.32-4.67-8.57-11.85-13.61-21.67-13.92-10.72-.33-21.47-.08-32.2-.08Z"/><path class="c" d="M107.56,71.99c.03,19.56-15.92,35.56-35.49,35.61-19.61,.05-35.66-15.97-35.64-35.59,.01-19.57,15.99-35.53,35.55-35.54,19.56,0,35.55,15.95,35.57,35.52Zm-12.32,.07c.02-12.88-10.36-23.28-23.25-23.27-12.85,0-23.16,10.28-23.24,23.15-.08,12.87,10.27,23.29,23.18,23.34,12.87,.05,23.28-10.32,23.3-23.22Z"/><path class="c" d="M109.1,44.03c-4.97,.03-9.04-3.99-9.06-8.93-.01-4.9,4.11-9.03,9.01-9.02,4.91,.01,9.03,4.15,8.99,9.04-.03,4.88-4.05,8.89-8.95,8.91Z"/></g></g></svg>