<?xml version="1.0" encoding="UTF-8"?><svg id="a" xmlns="http://www.w3.org/2000/svg" viewBox="0 0 648 78.97"><defs><style>.b{fill:#fff;}</style></defs><path class="b" d="M23.96,10h29.99l14.9,14.37H24.15v28.65h44.71v14.37H9.24V10l14.72,14.19V10Z"/><path class="b" d="M113.75,67.56h-14.9v-24.97l-22.35-24.25V10h14.34l15.56,16.79,15.56-16.79h14.34v8.35l-22.54,24.34v24.87Z"/><path class="b" d="M202.98,24.31v43.08h-59.52V10h44.62l14.9,14.31Zm-44.71,.06v7.09h29.81v-7.09h-29.81Zm0,28.65h29.81v-7.18h-29.81v7.18Z"/><path class="b" d="M270.05,53.1v14.37h-59.61V10h59.61v14.37h-44.71v7.18h44.71v14.37h-44.71v7.18h44.71Z"/><polygon class="b" points="322.21 10 292.4 10 292.4 24.37 322.21 24.37 322.21 31.55 292.4 31.55 292.4 24.37 277.5 10 277.5 24.37 277.5 31.55 277.5 45.92 277.5 67.47 292.4 67.47 292.4 45.92 300.41 45.92 322.76 67.47 327.07 67.47 337.11 67.47 337.11 60.11 322.39 45.92 337.11 45.92 337.11 31.55 337.11 10 322.21 10"/><polygon class="b" points="76.49 18.35 68.27 10 76.49 10 76.49 18.35"/><path class="b" d="M210.43,10h-10.7c3.57,3.62,7.13,7.23,10.7,10.85V10Z"/><g><g><path class="b" d="M367.56,46.01V10h57.47v14.37h-43.1v7.27h43.1v35.92h-57.47v-14.37h43.1v-7.18h-43.1Z"/><path class="b" d="M432.22,10h14.37V53.2h43.11v14.37h-57.47V10Z"/><path class="b" d="M496.87,10h14.37v57.56h-14.37V10Z"/><path class="b" d="M530.82,10h28.92l14.37,14.37h-43.11v28.65h43.11v14.37h-57.47V10l14.19,14.19V10Z"/><path class="b" d="M638.76,53.1v14.37h-57.47V10h57.47v14.37h-43.1v7.18h43.1v14.37h-43.1v7.18h43.1Z"/></g><path class="b" d="M581.46,10h-10.7c3.57,3.62,7.13,7.23,10.7,10.85V10Z"/></g></svg>