<?xml version="1.0" encoding="UTF-8"?><svg id="a" xmlns="http://www.w3.org/2000/svg" viewBox="0 0 468.51 144"><defs><style>.b{fill:#fff;}</style></defs><path class="b" d="M109.68,28.61c0-7.65,0-15.3,0-22.95H7.35c5.9,7.65,11.81,15.3,17.71,22.95H109.68Z"/><g><path class="b" d="M140.72,5.66h30.69l15.25,14.7h-45.75v29.32h45.75v14.7h-61V5.66l15.06,14.52V5.66Z"/><polygon class="b" points="255.67 5.65 255.67 14.2 232.6 39.1 232.6 64.56 217.35 64.56 217.35 39.01 194.47 14.2 186.05 5.65 209.15 5.65 225.07 22.84 240.99 5.65 255.67 5.65"/><path class="b" d="M323.91,20.3v44.08h-60.91V5.66h45.66l15.25,14.64Zm-45.75,.06v7.26h30.5v-7.26h-30.5Zm0,29.32h30.5v-7.35h-30.5v7.35Z"/><path class="b" d="M346.79,20.35v7.36h45.75v14.7h-45.75v7.35h45.75v14.7h-61V16.75c-3.65-3.7-7.3-7.4-10.95-11.1h71.95v14.7h-45.75Z"/><polygon class="b" points="445.91 5.66 415.41 5.66 415.41 20.36 445.91 20.36 445.91 27.71 415.41 27.71 415.41 20.36 400.16 5.66 400.16 20.36 400.16 27.71 400.16 42.41 400.16 64.47 415.41 64.47 415.41 42.41 423.61 42.41 446.49 64.47 450.89 64.47 461.16 64.47 461.16 56.93 446.1 42.41 461.16 42.41 461.16 27.71 461.16 5.66 445.91 5.66"/></g><g><path class="b" d="M125.66,116.26v-36.85h58.81v14.7h-44.11v7.44h44.11v36.76h-58.81v-14.7h44.11v-7.35h-44.11Z"/><path class="b" d="M191.82,79.41h14.7v44.2h44.11v14.7h-58.81v-58.9Z"/><path class="b" d="M257.98,79.41h14.7v58.9h-14.7v-58.9Z"/><path class="b" d="M292.72,79.41h29.59l14.7,14.7h-44.11v29.31h44.11v14.7h-58.81v-58.72l14.52,14.52v-14.52Z"/><path class="b" d="M359.07,94.11v7.35h44.1v14.71h-44.1v7.35h44.1v14.7h-58.81v-47.89c-3.58-3.64-7.17-7.28-10.76-10.92h69.57v14.7h-44.1Z"/></g><path class="b" d="M103.92,118.74v-11.5h5.77l-.02-65.56H35.14c2.08,2.7,4.16,5.39,6.24,8.09h8.74v11.32c10.39,13.47,20.78,26.93,31.16,40.4h8.4v10.89c6.68,8.66,13.35,17.31,20.03,25.97,0-6.53,0-13.07,0-19.6h-5.78Zm-25.75-47.79h-11.5v-11.5h11.5v11.5Zm19.8,19.96h-11.5v-11.5h11.5v11.5Zm4.71-30.3h-11.5v-11.5h11.5v11.5Z"/></svg>